<svg id="Layer_1" data-name="Layer 1" xmlns="http://www.w3.org/2000/svg" viewBox="0 0 194.83 162.02"><defs><style>.cls-1{fill:#fff;stroke:#000;stroke-miterlimit:10;}</style></defs><title>raven</title><polygon class="cls-1" points="35.56 42.53 193.65 42.53 85.37 154.09 35.56 42.53"/><polygon points="49.88 156.26 75.53 133.29 85.69 155.02 49.88 156.26"/><polygon class="cls-1" points="99.37 140.74 117.15 159.15 118.09 120.46 99.37 140.74"/><polygon class="cls-1" points="117.19 121.41 117.4 161.52 193.53 161.12 137.36 100.56 117.19 121.41"/><polygon class="cls-1" points="82.35 41.82 40.59 0.66 23 14.08 35.23 41.82 82.35 41.82"/><polygon class="cls-1" points="29.42 29.28 1.57 30.73 23.8 13.5 29.42 29.28"/><polygon class="cls-1" points="188.31 31.28 71.73 31.23 82.19 41.52 181.12 41.75 188.31 31.28"/></svg>